<mxfile host="app.diagrams.net" modified="2023-09-01T11:53:12.593Z" agent="Mozilla/5.0 (Windows NT 10.0; Win64; x64) AppleWebKit/537.36 (KHTML, like Gecko) Chrome/116.0.0.0 Safari/537.36" etag="-yYV6mkFcHaAD-rHxk7v" version="21.7.1" type="github">
  <diagram name="Page-1" id="929967ad-93f9-6ef4-fab6-5d389245f69c">
    <mxGraphModel dx="1050" dy="566" grid="1" gridSize="10" guides="1" tooltips="1" connect="1" arrows="1" fold="1" page="1" pageScale="1.5" pageWidth="1169" pageHeight="826" background="none" math="0" shadow="0">
      <root>
        <mxCell id="0" style=";html=1;" />
        <mxCell id="1" style=";html=1;" parent="0" />
        <mxCell id="eBXJGZw7fC2WVUuX2qBJ-1" value="&lt;p style=&quot;margin:0px;margin-top:4px;text-align:center;&quot;&gt;&lt;b&gt;App&lt;/b&gt;&lt;/p&gt;&lt;hr size=&quot;1&quot;&gt;&lt;p style=&quot;margin:0px;margin-left:4px;&quot;&gt;+ movie[ ] : String&lt;/p&gt;&lt;p style=&quot;margin:0px;margin-left:4px;&quot;&gt;+movieCredit :double&lt;/p&gt;&lt;p style=&quot;margin:0px;margin-left:4px;&quot;&gt;&lt;br&gt;&lt;/p&gt;&lt;hr size=&quot;1&quot;&gt;&lt;p style=&quot;margin:0px;margin-left:4px;&quot;&gt;+ listMovies(): void&lt;/p&gt;&lt;p style=&quot;margin:0px;margin-left:4px;&quot;&gt;+sortMovies():void&lt;/p&gt;&lt;p style=&quot;margin:0px;margin-left:4px;&quot;&gt;+subscribe():void&lt;/p&gt;" style="verticalAlign=top;align=left;overflow=fill;fontSize=12;fontFamily=Helvetica;html=1;whiteSpace=wrap;" vertex="1" parent="1">
          <mxGeometry x="500" width="150" height="140" as="geometry" />
        </mxCell>
        <mxCell id="eBXJGZw7fC2WVUuX2qBJ-2" value="&lt;p style=&quot;margin:0px;margin-top:4px;text-align:center;&quot;&gt;&lt;b&gt;User&lt;/b&gt;&lt;/p&gt;&lt;hr size=&quot;1&quot;&gt;&lt;p style=&quot;border-color: var(--border-color); margin: 0px 0px 0px 4px;&quot;&gt;+ id:int&lt;/p&gt;&lt;p style=&quot;border-color: var(--border-color); margin: 0px 0px 0px 4px;&quot;&gt;+credit:double&lt;/p&gt;&lt;hr size=&quot;1&quot;&gt;&lt;p style=&quot;margin:0px;margin-left:4px;&quot;&gt;+buyMovie():void&lt;/p&gt;&lt;p style=&quot;margin:0px;margin-left:4px;&quot;&gt;+requestMovie():void&lt;/p&gt;" style="verticalAlign=top;align=left;overflow=fill;fontSize=12;fontFamily=Helvetica;html=1;whiteSpace=wrap;" vertex="1" parent="1">
          <mxGeometry x="690" y="260" width="160" height="130" as="geometry" />
        </mxCell>
        <mxCell id="eBXJGZw7fC2WVUuX2qBJ-5" value="&lt;p style=&quot;margin:0px;margin-top:4px;text-align:center;&quot;&gt;&lt;b&gt;Subscriber&lt;/b&gt;&lt;/p&gt;&lt;hr size=&quot;1&quot;&gt;&lt;p style=&quot;margin:0px;margin-left:4px;&quot;&gt;+ id:int&lt;/p&gt;&lt;p style=&quot;margin:0px;margin-left:4px;&quot;&gt;+credit:double&lt;/p&gt;&lt;hr size=&quot;1&quot;&gt;&lt;p style=&quot;margin:0px;margin-left:4px;&quot;&gt;+buyCredit():void&lt;/p&gt;&lt;p style=&quot;margin:0px;margin-left:4px;&quot;&gt;+ rentMovie(): void&lt;/p&gt;&lt;p style=&quot;margin:0px;margin-left:4px;&quot;&gt;+buyMovie():void&lt;/p&gt;&lt;p style=&quot;margin:0px;margin-left:4px;&quot;&gt;+balanceCredit():double&lt;/p&gt;&lt;p style=&quot;margin:0px;margin-left:4px;&quot;&gt;+requestMovie():void&lt;br&gt;&lt;/p&gt;" style="verticalAlign=top;align=left;overflow=fill;fontSize=12;fontFamily=Helvetica;html=1;whiteSpace=wrap;" vertex="1" parent="1">
          <mxGeometry x="300" y="260" width="150" height="150" as="geometry" />
        </mxCell>
        <mxCell id="eBXJGZw7fC2WVUuX2qBJ-6" value="Extends" style="endArrow=block;endSize=16;endFill=0;html=1;rounded=0;entryX=0.5;entryY=1;entryDx=0;entryDy=0;" edge="1" parent="1" target="eBXJGZw7fC2WVUuX2qBJ-1">
          <mxGeometry width="160" relative="1" as="geometry">
            <mxPoint x="575" y="230" as="sourcePoint" />
            <mxPoint x="620" y="290" as="targetPoint" />
          </mxGeometry>
        </mxCell>
        <mxCell id="eBXJGZw7fC2WVUuX2qBJ-11" value="" style="endArrow=none;html=1;edgeStyle=orthogonalEdgeStyle;rounded=0;exitX=0.5;exitY=0;exitDx=0;exitDy=0;entryX=0.5;entryY=0;entryDx=0;entryDy=0;" edge="1" parent="1" source="eBXJGZw7fC2WVUuX2qBJ-5" target="eBXJGZw7fC2WVUuX2qBJ-2">
          <mxGeometry relative="1" as="geometry">
            <mxPoint x="490" y="230" as="sourcePoint" />
            <mxPoint x="650" y="230" as="targetPoint" />
            <Array as="points">
              <mxPoint x="375" y="230" />
              <mxPoint x="770" y="230" />
            </Array>
          </mxGeometry>
        </mxCell>
      </root>
    </mxGraphModel>
  </diagram>
</mxfile>
